<mxfile host="app.diagrams.net" modified="2024-03-27T12:09:31.402Z" agent="Mozilla/5.0 (Windows NT 10.0; Win64; x64) AppleWebKit/537.36 (KHTML, like Gecko) Chrome/123.0.0.0 Safari/537.36" version="24.2.0" etag="qeHF_h88T1TWzzCkjZq8" type="github">
  <diagram name="Page-1" id="ERiux_2K1L75bife7GO7">
    <mxGraphModel>
      <root>
        <mxCell id="0" />
        <mxCell id="1" parent="0" />
      </root>
    </mxGraphModel>
  </diagram>
</mxfile>
